<?xml version="1.0" encoding="utf-8"?>
<!-- Generator: Adobe Illustrator 16.0.0, SVG Export Plug-In . SVG Version: 6.00 Build 0)  -->
<!DOCTYPE svg PUBLIC "-//W3C//DTD SVG 1.1//EN" "http://www.w3.org/Graphics/SVG/1.1/DTD/svg11.dtd">
<svg version="1.1" xmlns="http://www.w3.org/2000/svg" xmlns:xlink="http://www.w3.org/1999/xlink" x="0px" y="0px" width="1024px"
	 height="181px" viewBox="0 0 1024 181" enable-background="new 0 0 1024 181" xml:space="preserve">
<g id="BG">
	<rect fill="#6750A4" width="1024" height="502"/>
	
		<image display="none" overflow="visible" width="1500" height="1500" xlink:href="D19B34CC.jpg"  transform="matrix(0.3825 0 0 0.3675 -7.4038 -362)">
	</image>
	<g>
		<defs>
			<path id="SVGID_1_" d="M545,178c0,6.075-4.925,11-11,11H-18c-6.075,0-11-4.925-11-11v-296c0-6.075,4.925-11,11-11h552
				c6.075,0,11,4.925,11,11V178z"/>
		</defs>
		<clipPath id="SVGID_2_">
			<use xlink:href="#SVGID_1_"  overflow="visible"/>
		</clipPath>
		<g transform="matrix(1 0 0 1 0 3.051758e-005)" clip-path="url(#SVGID_2_)">
			
				<image overflow="visible" width="1500" height="1500" xlink:href="D19B34C1.jpg"  transform="matrix(0.3825 0 0 0.3675 -7.4038 -362)">
			</image>
		</g>
	</g>
	<g>
		<rect x="55" y="40" opacity="0.3" width="1031" height="113"/>
	</g>
</g>
<g id="Layer_1">
	<g>
		<g>
			<g>
				<image overflow="visible" width="449" height="175" xlink:href="D19B34CF.png"  transform="matrix(1 0 0 1 52 13)">
				</image>
				<g>
					<path fill="#FFFFFF" d="M450,95c0,19.882-16.118,36-36,36H140c-19.882,0-36-16.118-36-36l0,0c0-19.882,16.118-36,36-36h274
						C433.882,59,450,75.118,450,95L450,95z"/>
					<path fill="none" stroke="#231F20" stroke-width="12" stroke-miterlimit="10" d="M450,95c0,19.882-16.118,36-36,36H140
						c-19.882,0-36-16.118-36-36l0,0c0-19.882,16.118-36,36-36h274C433.882,59,450,75.118,450,95L450,95z"/>
				</g>
			</g>
		</g>
		<circle cx="138.696" cy="94.505" r="19.078"/>
		<g>
			<defs>
				<circle id="SVGID_3_" cx="138.696" cy="94.421" r="15.841"/>
			</defs>
			<clipPath id="SVGID_4_">
				<use xlink:href="#SVGID_3_"  overflow="visible"/>
			</clipPath>
			<g transform="matrix(1 0 0 1 -1.525879e-005 0)" clip-path="url(#SVGID_4_)">
				
					<image overflow="visible" width="765" height="765" xlink:href="D19B34C3.jpg"  transform="matrix(-0.1327 3.757791e-004 -4.027192e-004 -0.1423 189.9424 140.8398)">
				</image>
			</g>
		</g>
		<g>
			<path d="M172.999,70.787h18.946c6.394,0,11.505,1.441,15.333,4.323c4.142,3.107,6.214,7.577,6.214,13.408
				c0,6.079-2.184,10.919-6.552,14.521c-4.143,3.4-9.456,5.1-15.94,5.1h-11.752v10.469h-6.248V70.787z M191.844,102.464
				c4.593,0,8.217-1.148,10.875-3.444c2.769-2.386,4.154-5.752,4.154-10.098c0-4.165-1.554-7.34-4.661-9.524
				c-2.792-1.958-6.541-2.938-11.246-2.938h-11.719v26.004H191.844z"/>
			<path d="M227.93,70.956c0,1.261-0.383,2.274-1.148,3.04c-0.766,0.766-1.779,1.148-3.04,1.148c-1.261,0-2.274-0.383-3.04-1.148
				c-0.766-0.765-1.148-1.778-1.148-3.04c0-1.261,0.383-2.268,1.148-3.022c0.765-0.754,1.778-1.131,3.04-1.131
				c1.261,0,2.274,0.377,3.04,1.131C227.547,68.688,227.93,69.695,227.93,70.956z M220.534,84.836h6.417v33.771h-6.417V84.836z"/>
			<path d="M238.334,70.787h18.946c6.394,0,11.505,1.441,15.333,4.323c4.142,3.107,6.214,7.577,6.214,13.408
				c0,6.079-2.184,10.919-6.552,14.521c-4.143,3.4-9.456,5.1-15.94,5.1h-11.752v10.469h-6.248V70.787z M257.179,102.464
				c4.593,0,8.217-1.148,10.875-3.444c2.769-2.386,4.154-5.752,4.154-10.098c0-4.165-1.554-7.34-4.661-9.524
				c-2.792-1.958-6.541-2.938-11.246-2.938h-11.719v26.004H257.179z"/>
			<path d="M312.423,92.316c0.687,1.813,1.03,3.721,1.03,5.724c0,2.004-0.226,4.356-0.675,7.058h-23.505
				c0.495,2.725,1.599,4.869,3.31,6.434c1.711,1.565,4.131,2.347,7.261,2.347c4.188,0,8.026-0.765,11.516-2.296l1.081,4.829
				c-2.319,1.351-5.629,2.24-9.929,2.668c-1.194,0.135-2.747,0.203-4.661,0.203c-1.914,0-3.917-0.383-6.011-1.148
				s-3.828-1.891-5.201-3.377c-2.724-2.949-4.086-7.272-4.086-12.968c0-4.998,1.632-9.186,4.896-12.563
				c3.31-3.377,7.441-5.066,12.395-5.066c4.075,0,7.328,1.216,9.76,3.647C310.796,89.001,311.736,90.504,312.423,92.316z
				 M307.34,100.134l0.135-1.824c0-4.12-1.542-6.855-4.627-8.207c-1.036-0.45-2.274-0.675-3.715-0.675s-2.764,0.282-3.968,0.844
				c-1.205,0.563-2.246,1.329-3.124,2.296c-1.802,1.981-2.815,4.503-3.04,7.565H307.34z"/>
			<path d="M346.534,115.399c-3.175,2.589-7.002,3.884-11.482,3.884c-4.841,0-8.747-1.598-11.719-4.795
				c-2.904-3.107-4.356-7.137-4.356-12.09c0-5.381,2.116-9.816,6.349-13.306c4.03-3.287,8.938-4.931,14.725-4.931
				c2.274,0,4.255,0.169,5.944,0.507V65.89h6.417v52.717h-4.897L346.534,115.399z M345.994,90.375
				c-2.364-0.541-4.537-0.811-6.518-0.811c-1.981,0-3.828,0.282-5.539,0.844c-1.711,0.563-3.197,1.374-4.458,2.432
				c-2.725,2.296-4.086,5.347-4.086,9.152c0,3.333,0.878,6.113,2.634,8.342c1.868,2.364,4.356,3.546,7.463,3.546
				c3.512,0,6.417-0.878,8.713-2.634c0.72-0.563,1.317-1.216,1.79-1.958V90.375z"/>
			<path d="M384.325,114.285c-4.12,3.333-8.454,4.998-13.002,4.998c-3.174,0-5.842-0.833-8.004-2.499
				c-2.319-1.801-3.479-4.154-3.479-7.058c0-5.989,3.985-9.985,11.956-11.989c3.219-0.81,7.08-1.26,11.583-1.351
				c-0.135-3.669-1.925-5.831-5.37-6.484c-1.126-0.225-2.184-0.337-3.175-0.337s-1.869,0.045-2.634,0.135
				c-0.766,0.09-1.554,0.214-2.364,0.372c-1.779,0.338-3.288,0.755-4.525,1.25l-1.79-4.795c3.152-1.576,6.957-2.364,11.415-2.364
				c6.957,0,11.538,2.218,13.745,6.653c0.743,1.531,1.114,3.355,1.114,5.471v10.773c0,2.296,0.169,3.828,0.507,4.593
				c0.608,1.464,1.677,2.398,3.208,2.803l-0.945,4.154C388.355,119.103,385.609,117.662,384.325,114.285z M372.185,103.022
				c-2.105,0.799-3.62,1.677-4.542,2.634c-0.923,0.957-1.384,1.987-1.384,3.09c0,1.104,0.157,1.942,0.473,2.516
				c0.315,0.574,0.731,1.053,1.25,1.435c1.058,0.789,2.296,1.182,3.715,1.182s2.696-0.152,3.833-0.456
				c1.137-0.304,2.189-0.703,3.158-1.199c1.891-0.946,3.456-2.116,4.694-3.512v-7.295
				C378.021,101.688,374.29,102.223,372.185,103.022z"/>
			<path d="M400.169,65.89h6.417v41.167c0,2.296,0.157,3.828,0.473,4.593c0.63,1.464,1.71,2.398,3.242,2.803l-0.946,4.154
				c-3.49,0.45-5.978-0.473-7.463-2.769c-1.148-1.801-1.723-4.57-1.723-8.308V65.89z"/>
		</g>
	</g>
</g>
</svg>
